<?xml version="1.0" encoding="UTF-8"?>
<svg width="100px" height="100px" viewBox="0 0 100 100" version="1.1" xmlns="http://www.w3.org/2000/svg" xmlns:xlink="http://www.w3.org/1999/xlink">
    <!-- Generator: Sketch 41.2 (35397) - http://www.bohemiancoding.com/sketch -->
    <title>Artboard</title>
    <desc>Created with Sketch.</desc>
    <defs></defs>
    <g id="Page-1" stroke="none" stroke-width="1" fill="none" fill-rule="evenodd">
        <g id="Artboard">
            <g id="Group" transform="translate(1.000000, 0.000000)">
                <path d="M56.3833333,1.07142857 C77.9607143,-0.242285714 95.0738095,13.7667381 96.3409524,35.4604762 C97.7709048,60.1419048 78.1117857,85.4395238 52.4071429,91.9847619 C43.5134524,94.2285476 35.1894286,93.9727857 27.9580952,91.6942857 C27.4349286,81.9519048 29.3299286,71.802619 33.5035714,64.7109524 C40.3046429,53.1549762 50.6050238,54.1431667 56.4992857,66.9082143 C58.7198095,71.7096429 59.998619,77.4992619 60.3706429,83.4632857 C62.4284048,82.3704524 64.4280476,81.138119 66.3346667,79.8128095 C59.9637619,64.3505714 57.1154286,46.0399524 79.9484048,13.8832857 C73.310119,8.57033333 63.1026905,5.98940476 50.3607857,7.62864286 C52.2441905,5.43138095 54.2437857,3.23411905 56.3829286,1.0717381 L56.3833333,1.07142857 Z" id="Shape" fill="#000000"></path>
                <path d="M51.1285714,27.252381 C49.2800476,31.1354048 50.0240952,34.3324762 52.7794048,34.3905952 C55.5230952,34.4370238 59.2549286,31.3214048 61.1034524,27.4267857 C62.9519286,23.5437857 62.2195238,20.3466905 59.4642143,20.2885714 C56.7089286,20.2421429 52.9770476,23.3577619 51.1285714,27.252381 Z M49.2568095,16.2311905 C29.9580476,39.8895952 21.7620476,70.6164286 22.913,98.0183333 C11.5197619,93.4610476 3.17245238,82.4747143 2.30054762,68.5471429 L2.30054762,68.3842857 C0.858952381,43.6795238 20.5645714,18.3704762 46.303881,11.8483333 C56.3020476,9.32554762 65.742119,9.99985714 73.6243571,13.2201905 C71.9851429,17.8937381 69.2414524,23.2415952 66.5210238,27.2756905 C60.8244286,35.7392381 52.6399048,41.0754524 48.245381,39.2037381 C43.8624524,37.3203333 44.9204048,28.9265714 50.6286429,20.4514048 C51.9423333,18.4982857 53.3955476,16.7079048 54.9069286,15.1384286 C53.0468095,15.3940952 51.1634048,15.7545952 49.2568095,16.2312619 L49.2568095,16.2311905 Z" id="Shape" fill="#B80017"></path>
            </g>
        </g>
    </g>
</svg>